<svg xmlns="http://www.w3.org/2000/svg" xmlns:xlink="http://www.w3.org/1999/xlink" style="" version="1.1" xml:space="preserve" width="128" height="128"><rect id="backgroundrect" width="100%" height="100%" x="0" y="0" fill="none" stroke="none"/><g class="currentLayer" style=""><title>Layer 1</title><g id="svg_1" class="selected"><g id="svg_2"><g id="svg_3"><circle cx="64.3571416949327" cy="65.07142644333413" r="63.214286289125084" style="fill:#F0DB4F;" id="svg_4"/></g></g><g id="Layer_1_1_"><g id="svg_5"><g id="svg_6"><path d="M44.634283875879326,40.235765878344736 h10.999286091395145 v31.364622878465994 c0,14.082075578086773 -6.7007145154476175,19.074811464862993 -17.320714879553275,19.074811464862993 c-2.6550000910264147,0 -5.942143060868642,-0.38405660667509406 -8.091428848842407,-1.1521698200252815 l1.264285757631626,-9.089339691310553 c1.5171429091579511,0.5120754755667918 3.5400001213685526,0.8961320822418858 5.689285909342317,0.8961320822418858 c4.677857303237016,0 7.585714545789756,-2.1763207711588657 7.585714545789756,-9.729434035769042 L44.634283875879326,40.235765878344736 L44.634283875879326,40.235765878344736 z" style="fill:#323330;" id="svg_7"/><path d="M65.36857030103799,78.38538880807072 c2.9078572425527396,1.5362264267003753 7.585714545789756,3.0724528534007503 12.263571849026771,3.0724528534007503 c5.057143030526504,0 7.712143121552918,-2.1763207711588657 7.712143121552918,-5.504811362343011 c0,-3.0724528534007503 -2.275714363736927,-4.864717017884521 -8.217857424605569,-6.913018920151688 c-8.091428848842407,-2.9444339845090526 -13.527857606658397,-7.553113264610178 -13.527857606658397,-14.85018879143696 C63.59857024035371,45.86859610957944 70.67857048309082,39.467652664994546 82.18357087753861,39.467652664994546 c5.562857333579155,0 9.608571758000357,1.1521698200252815 12.516429000553098,2.5603773778339587 l-2.528571515263252,8.961320822418855 c-1.896428636447439,-0.8961320822418858 -5.4364287578159916,-2.304339640050563 -10.114286061053008,-2.304339640050563 c-4.80428587900018,0 -7.080000242737105,2.304339640050563 -7.080000242737105,4.736698148992824 c0,3.2004717222924484 2.6550000910264147,4.608679280101126 9.102857454947708,7.041037789043386 c8.597143151895057,3.2004717222924484 12.64285757631626,7.809151002393574 12.64285757631626,14.85018879143696 c0,8.321226477960366 -6.195000212394969,15.362264267003752 -19.722857819053363,15.362264267003752 c-5.562857333579155,0 -11.12571466715831,-1.5362264267003753 -13.907143333947886,-3.0724528534007503 L65.36857030103799,78.38538880807072 z" style="fill:#323330;" id="svg_8"/></g></g></g></g></g></svg>