<svg xmlns="http://www.w3.org/2000/svg" xmlns:xlink="http://www.w3.org/1999/xlink" style="" version="1.1" xml:space="preserve" width="101.42857360839844" height="102.85713958740234"><rect id="backgroundrect" width="100%" height="100%" x="0" y="0" fill="none" stroke="none"/><style type="text/css">
	.st0{fill:#231F20;}
	.st1{fill-rule:evenodd;clip-rule:evenodd;fill:#231F20;}
	.st2{fill-rule:evenodd;clip-rule:evenodd;}
</style><g class="currentLayer" style=""><title>Layer 1</title><g id="Layer_3"/><g id="Layer_1" class=""><g id="codepen"><path class="st0" d="M51.657145518975796,0.19812214130563888 c-27.362244605982333,0 -49.428570901129376,22.45896535718117 -49.428570901129376,50.30808240008582 s22.066326295147043,50.30808240008582 49.428570901129376,50.30808240008582 c27.362244605982333,0 49.428570901129376,-22.45896535718117 49.428570901129376,-50.30808240008582 S79.01939012495812,0.19812214130563888 51.657145518975796,0.19812214130563888 zM51.657145518975796,92.5493876900346 c-22.77244873659175,0 -41.308162824515264,-18.865530900032184 -41.308162824515264,-42.04318314864315 s18.535714087923516,-42.04318314864315 41.308162824515264,-42.04318314864315 c22.77244873659175,0 41.308162824515264,18.865530900032184 41.308162824515264,42.04318314864315 S74.42959425556754,92.5493876900346 51.657145518975796,92.5493876900346 z" id="svg_1"/><path class="st0" d="M82.19694111145928,40.62425978423174 C82.19694111145928,40.62425978423174 82.19694111145928,40.62425978423174 82.19694111145928,40.62425978423174 c0,-0.1796717228574494 0,-0.1796717228574494 0,-0.35934344571489873 c0,0 0,0 0,-0.1796717228574494 c0,0 0,-0.1796717228574494 0,-0.1796717228574494 c0,0 0,0 0,-0.1796717228574494 c0,0 0,-0.1796717228574494 -0.1765306103611764,-0.1796717228574494 c0,0 0,0 0,-0.1796717228574494 c0,0 0,-0.1796717228574494 -0.1765306103611764,-0.1796717228574494 c0,0 0,0 -0.1765306103611764,-0.1796717228574494 c0,0 0,-0.1796717228574494 -0.1765306103611764,-0.1796717228574494 c0,0 0,0 -0.1765306103611764,-0.1796717228574494 c0,0 -0.1765306103611764,0 -0.1765306103611764,-0.1796717228574494 c0,0 0,0 -0.1765306103611764,-0.1796717228574494 c0,0 0,0 0,0 L53.245921012226376,19.782339932767613 c-0.8826530518058816,-0.5390151685723482 -2.118367324334116,-0.5390151685723482 -3.0010203761399983,0 L22.35306419902053,38.827542555657246 c0,0 0,0 0,0 c0,0 0,0 -0.1765306103611764,0.1796717228574494 c0,0 -0.1765306103611764,0 -0.1765306103611764,0.1796717228574494 c0,0 0,0 -0.1765306103611764,0.1796717228574494 c0,0 -0.1765306103611764,0.1796717228574494 -0.1765306103611764,0.1796717228574494 c0,0 0,0 -0.1765306103611764,0.1796717228574494 c0,0 0,0.1796717228574494 -0.1765306103611764,0.1796717228574494 c0,0 0,0 0,0.1796717228574494 c0,0 0,0.1796717228574494 -0.1765306103611764,0.1796717228574494 c0,0 0,0 0,0.1796717228574494 c0,0 0,0.1796717228574494 0,0.1796717228574494 c0,0 0,0 0,0.1796717228574494 c0,0 0,0.1796717228574494 0,0.1796717228574494 c0,0 0,0 0,0.1796717228574494 c0,0.1796717228574494 0,0.1796717228574494 0,0.35934344571489873 v18.865530900032184 c0,0.1796717228574494 0,0.1796717228574494 0,0.35934344571489873 c0,0 0,0 0,0.1796717228574494 c0,0 0,0.1796717228574494 0,0.1796717228574494 c0,0 0,0 0,0.1796717228574494 c0,0 0,0.1796717228574494 0,0.1796717228574494 c0,0 0,0 0,0.1796717228574494 c0,0 0,0.1796717228574494 0.1765306103611764,0.1796717228574494 c0,0 0,0 0,0.1796717228574494 c0,0 0,0.1796717228574494 0.1765306103611764,0.1796717228574494 c0,0 0,0 0.1765306103611764,0.1796717228574494 c0,0 0,0.1796717228574494 0.1765306103611764,0.1796717228574494 c0,0 0,0 0.1765306103611764,0.1796717228574494 c0,0 0.1765306103611764,0 0.1765306103611764,0.1796717228574494 c0,0 0,0 0.1765306103611764,0.1796717228574494 c0,0 0,0 0,0 L50.244900636086385,81.2300691500153 c0.35306122072235274,0.35934344571489873 0.8826530518058816,0.5390151685723482 1.4122448828894107,0.5390151685723482 c0.5295918310835291,0 1.0591836621670583,-0.1796717228574494 1.4122448828894107,-0.5390151685723482 l27.891836437065862,-19.045202622889633 c0,0 0,0 0,0 c0,0 0,0 0.1765306103611764,-0.1796717228574494 c0,0 0.1765306103611764,0 0.1765306103611764,-0.1796717228574494 c0,0 0,0 0.1765306103611764,-0.1796717228574494 c0,0 0.1765306103611764,-0.1796717228574494 0.1765306103611764,-0.1796717228574494 c0,0 0,0 0.1765306103611764,-0.1796717228574494 c0,0 0,-0.1796717228574494 0.1765306103611764,-0.1796717228574494 c0,0 0,0 0,-0.1796717228574494 c0,0 0,-0.1796717228574494 0.1765306103611764,-0.1796717228574494 c0,0 0,0 0,-0.1796717228574494 c0,0 0,-0.1796717228574494 0,-0.1796717228574494 c0,0 0,0 0,-0.1796717228574494 c0,0 0,-0.1796717228574494 0,-0.1796717228574494 c0,0 0,0 0,-0.1796717228574494 c0,-0.1796717228574494 0,-0.1796717228574494 0,-0.35934344571489873 V40.98360322994664 C82.37347172182048,40.98360322994664 82.37347172182048,40.8039315070892 82.19694111145928,40.62425978423174 zM54.305104674393434,27.148880569923037 L74.95918608665107,40.98360322994664 l-9.17959173878117,6.288510300010728 L54.305104674393434,39.54622944708704 V27.148880569923037 zM49.18571697391933,27.148880569923037 V39.54622944708704 l-11.474489673476462,7.725884082870323 l-9.17959173878117,-6.288510300010728 L49.18571697391933,27.148880569923037 zM26.41326823732758,46.01441146995522 l6.531632583363525,4.491793071436235 l-6.531632583363525,4.491793071436235 V46.01441146995522 zM49.18571697391933,73.86352851285987 l-20.654081412257632,-14.01439438288105 l9.17959173878117,-6.288510300010728 l11.474489673476462,7.725884082870323 V73.86352851285987 zM51.657145518975796,56.79471484140218 l-9.356122349142346,-6.288510300010728 l9.356122349142346,-6.288510300010728 l9.356122349142346,6.288510300010728 L51.657145518975796,56.79471484140218 zM54.305104674393434,73.86352851285987 v-12.397348877164006 l11.474489673476462,-7.725884082870323 l9.17959173878117,6.288510300010728 L54.305104674393434,73.86352851285987 zM77.07755341098519,54.99799761282769 l-6.531632583363525,-4.491793071436235 l6.531632583363525,-4.491793071436235 V54.99799761282769 z" id="svg_2"/></g></g></g></svg>