<svg xmlns="http://www.w3.org/2000/svg" xmlns:xlink="http://www.w3.org/1999/xlink" style="" version="1.1" xml:space="preserve" width="80" height="77.14286041259766"><rect id="backgroundrect" width="100%" height="100%" x="0" y="0" fill="none" stroke="none" class="" style=""/><style type="text/css">
	.st0{fill:#FFFFFF;}
	.st1{fill-rule:evenodd;clip-rule:evenodd;fill:#FFFFFF;}
	.st2{fill-rule:evenodd;clip-rule:evenodd;}
</style><g class="currentLayer" style=""><title>Layer 1</title><g id="Layer_3"/><g id="Layer_1" class=""><g id="codepen"><path class="st0" d="M39.87142677572227,0.5155154265542462 c-21.62882520679085,0 -39.071426180009276,16.967200932968947 -39.071426180009276,38.00653008985044 s17.442600973218426,38.00653008985044 39.071426180009276,38.00653008985044 c21.62882520679085,0 39.071426180009276,-16.967200932968947 39.071426180009276,-38.00653008985044 S61.50025198251312,0.5155154265542462 39.87142677572227,0.5155154265542462 zM39.87142677572227,70.28464566292257 c-18.000764204361413,0 -32.6525490218649,-14.252448783693914 -32.6525490218649,-31.76260014651787 s14.651784817503477,-31.76260014651787 32.6525490218649,-31.76260014651787 c18.000764204361413,0 32.6525490218649,14.252448783693914 32.6525490218649,31.76260014651787 S57.8721909800837,70.28464566292257 39.87142677572227,70.28464566292257 z" id="svg_1"/><path class="st0" d="M64.0119865226566,31.056477105898356 C64.0119865226566,31.056477105898356 64.0119865226566,31.056477105898356 64.0119865226566,31.056477105898356 c0,-0.13573760746375169 0,-0.13573760746375169 0,-0.2714752149275033 c0,0 0,0 0,-0.13573760746375169 c0,0 0,-0.13573760746375169 0,-0.13573760746375169 c0,0 0,0 0,-0.13573760746375169 c0,0 0,-0.13573760746375169 -0.13954080778574768,-0.13573760746375169 c0,0 0,0 0,-0.13573760746375169 c0,0 0,-0.13573760746375169 -0.13954080778574768,-0.13573760746375169 c0,0 0,0 -0.13954080778574768,-0.13573760746375169 c0,0 0,-0.13573760746375169 -0.13954080778574768,-0.13573760746375169 c0,0 0,0 -0.13954080778574768,-0.13573760746375169 c0,0 -0.13954080778574768,0 -0.13954080778574768,-0.13573760746375169 c0,0 0,0 -0.13954080778574768,-0.13573760746375169 c0,0 0,0 0,0 L41.12729404579401,15.310914640103167 c-0.6977040389287383,-0.40721282239125506 -1.6744896934289697,-0.40721282239125506 -2.3721937323577067,0 L16.70765268328821,29.699101031260838 c0,0 0,0 0,0 c0,0 0,0 -0.13954080778574768,0.13573760746375169 c0,0 -0.13954080778574768,0 -0.13954080778574768,0.13573760746375169 c0,0 0,0 -0.13954080778574768,0.13573760746375169 c0,0 -0.13954080778574768,0.13573760746375169 -0.13954080778574768,0.13573760746375169 c0,0 0,0 -0.13954080778574768,0.13573760746375169 c0,0 0,0.13573760746375169 -0.13954080778574768,0.13573760746375169 c0,0 0,0 0,0.13573760746375169 c0,0 0,0.13573760746375169 -0.13954080778574768,0.13573760746375169 c0,0 0,0 0,0.13573760746375169 c0,0 0,0.13573760746375169 0,0.13573760746375169 c0,0 0,0 0,0.13573760746375169 c0,0 0,0.13573760746375169 0,0.13573760746375169 c0,0 0,0 0,0.13573760746375169 c0,0.13573760746375169 0,0.13573760746375169 0,0.2714752149275033 v14.252448783693914 c0,0.13573760746375169 0,0.13573760746375169 0,0.2714752149275033 c0,0 0,0 0,0.13573760746375169 c0,0 0,0.13573760746375169 0,0.13573760746375169 c0,0 0,0 0,0.13573760746375169 c0,0 0,0.13573760746375169 0,0.13573760746375169 c0,0 0,0 0,0.13573760746375169 c0,0 0,0.13573760746375169 0.13954080778574768,0.13573760746375169 c0,0 0,0 0,0.13573760746375169 c0,0 0,0.13573760746375169 0.13954080778574768,0.13573760746375169 c0,0 0,0 0.13954080778574768,0.13573760746375169 c0,0 0,0.13573760746375169 0.13954080778574768,0.13573760746375169 c0,0 0,0 0.13954080778574768,0.13573760746375169 c0,0 0.13954080778574768,0 0.13954080778574768,0.13573760746375169 c0,0 0,0 0.13954080778574768,0.13573760746375169 c0,0 0,0 0,0 L38.7551003134363,61.73317639270621 c0.2790816155714953,0.2714752149275033 0.6977040389287383,0.40721282239125506 1.1163264622859794,0.40721282239125506 c0.4186224233572429,0 0.8372448467144854,-0.13573760746375169 1.1163264622859794,-0.40721282239125506 l22.047447630148092,-14.388186391157666 c0,0 0,0 0,0 c0,0 0,0 0.13954080778574768,-0.13573760746375169 c0,0 0.13954080778574768,0 0.13954080778574768,-0.13573760746375169 c0,0 0,0 0.13954080778574768,-0.13573760746375169 c0,0 0.13954080778574768,-0.13573760746375169 0.13954080778574768,-0.13573760746375169 c0,0 0,0 0.13954080778574768,-0.13573760746375169 c0,0 0,-0.13573760746375169 0.13954080778574768,-0.13573760746375169 c0,0 0,0 0,-0.13573760746375169 c0,0 0,-0.13573760746375169 0.13954080778574768,-0.13573760746375169 c0,0 0,0 0,-0.13573760746375169 c0,0 0,-0.13573760746375169 0,-0.13573760746375169 c0,0 0,0 0,-0.13573760746375169 c0,0 0,-0.13573760746375169 0,-0.13573760746375169 c0,0 0,0 0,-0.13573760746375169 c0,-0.13573760746375169 0,-0.13573760746375169 0,-0.2714752149275033 V31.32795232082585 C64.15152733044235,31.32795232082585 64.15152733044235,31.1922147133621 64.0119865226566,31.056477105898356 zM41.96453889250848,20.876156546116988 L58.290813403440936,31.32795232082585 l-7.256122004858866,4.750816261231305 L41.96453889250848,30.24205146111584 V20.876156546116988 zM37.91785546672182,20.876156546116988 V30.24205146111584 l-9.070152506073581,5.836717120941317 l-7.256122004858866,-4.750816261231305 L37.91785546672182,20.876156546116988 zM19.917091262360398,35.1286053298109 l5.163009888072654,3.3934401865937893 l-5.163009888072654,3.3934401865937893 V35.1286053298109 zM37.91785546672182,56.16793448669239 l-16.32627451093245,-10.587533382172623 l7.256122004858866,-4.750816261231305 l9.070152506073581,5.836717120941317 V56.16793448669239 zM39.87142677572227,43.27286177763599 l-7.395662812644612,-4.750816261231305 l7.395662812644612,-4.750816261231305 l7.395662812644612,4.750816261231305 L39.87142677572227,43.27286177763599 zM41.96453889250848,56.16793448669239 v-9.36589491499886 l9.070152506073581,-5.836717120941317 l7.256122004858866,4.750816261231305 L41.96453889250848,56.16793448669239 zM59.96530309686991,41.915485702998474 l-5.163009888072654,-3.3934401865937893 l5.163009888072654,-3.3934401865937893 V41.915485702998474 z" id="svg_2"/></g></g></g></svg>